# WaveFront *.obj file (generated by Autodesk ATF)

mtllib skeleton.mtl

g 본체1

v 0.200000 0.010000 -0.020000
v -0.200000 0.010000 -0.020000
v -0.200000 0.010000 0.000000
v -0.180000 0.010000 -0.000000
v 0.180000 0.010000 -0.000000
v 0.200000 0.010000 0.000000
v 0.180000 -0.010000 0.000000
v -0.180000 -0.010000 0.000000
v -0.200000 -0.010000 0.000000
v -0.200000 -0.010000 -0.020000
v 0.200000 -0.010000 -0.020000
v 0.200000 -0.010000 0.000000
v 0.200000 -0.150000 0.000000
v -0.200000 -0.150000 0.000000
v -0.180000 -0.130000 0.000000
v 0.180000 -0.130000 0.000000
v 0.200000 -0.130000 0.280000
v 0.180000 -0.130000 0.280000
v 0.180000 -0.150000 0.280000
v 0.200000 -0.150000 0.280000
v 0.180000 0.130000 0.280000
v 0.200000 0.130000 0.280000
v 0.200000 0.150000 0.280000
v 0.180000 0.150000 0.280000
v 0.180000 -0.150000 0.020000
v -0.200000 -0.150000 0.020000
v -0.200000 0.150000 0.020000
v -0.200000 0.150000 0.000000
v -0.180000 0.130000 0.020000
v 0.180000 0.130000 0.020000
v 0.180000 0.150000 0.020000
v 0.180000 -0.130000 0.020000
v -0.180000 -0.130000 0.020000
v 0.200000 -0.130000 0.020000
v 0.200000 0.130000 0.020000
v -0.180000 0.130000 0.000000
v 0.180000 0.130000 0.000000
v 0.200000 0.150000 0.000000
vt 2.000000 20.000000 0.000000
vt 0.000000 18.000000 0.000000
vt 2.000000 -20.000000 0.000000
vt 0.000000 -18.000000 0.000000
vt -0.000000 -20.000000 0.000000
vt -0.000000 20.000000 0.000000
vt 0.000000 -18.000000 0.000000
vt 2.000000 -18.000000 0.000000
vt 0.000000 18.000000 0.000000
vt 2.000000 18.000000 0.000000
vt 2.000000 20.000000 0.000000
vt 0.000000 20.000000 0.000000
vt 2.000000 18.000000 0.000000
vt 0.000000 -20.000000 0.000000
vt 2.000000 -18.000000 0.000000
vt 2.000000 -20.000000 0.000000
vt 2.000000 20.000000 0.000000
vt -0.000000 20.000000 0.000000
vt 2.000000 -20.000000 0.000000
vt 0.000000 -20.000000 0.000000
vt -18.000000 -1.000000 0.000000
vt -20.000000 -1.000000 0.000000
vt -18.000000 -13.000000 0.000000
vt -20.000000 -15.000000 0.000000
vt 20.000000 -15.000000 0.000000
vt 18.000000 -13.000000 0.000000
vt 20.000000 -1.000000 0.000000
vt 18.000000 -1.000000 0.000000
vt 20.000000 -13.000000 0.000000
vt 18.000000 -13.000000 0.000000
vt 20.000000 -15.000000 0.000000
vt 18.000000 -15.000000 0.000000
vt 18.000000 13.000000 0.000000
vt 20.000000 13.000000 0.000000
vt 18.000000 15.000000 0.000000
vt 20.000000 15.000000 0.000000
vt 0.000000 2.000000 0.000000
vt 0.000000 0.000000 0.000000
vt 38.000000 2.000000 0.000000
vt 40.000000 0.000000 0.000000
vt 40.000000 28.000000 0.000000
vt 38.000000 28.000000 0.000000
vt 30.000000 0.000000 0.000000
vt 30.000000 2.000000 0.000000
vt 16.000000 0.000000 0.000000
vt -0.000000 2.000000 0.000000
vt 14.000000 0.000000 0.000000
vt -0.000000 0.000000 0.000000
vt 14.000000 -2.000000 0.000000
vt 16.000000 -2.000000 0.000000
vt -0.000000 28.000000 0.000000
vt 0.000000 30.000000 0.000000
vt -36.000000 28.000000 0.000000
vt -38.000000 30.000000 0.000000
vt -38.000000 0.000000 0.000000
vt -36.000000 2.000000 0.000000
vt -0.000000 0.000000 0.000000
vt -0.000000 2.000000 0.000000
vt -8.000000 28.000000 0.000000
vt 18.000000 28.000000 0.000000
vt -8.000000 30.000000 0.000000
vt 18.000000 30.000000 0.000000
vt 18.000000 2.000000 0.000000
vt -8.000000 2.000000 0.000000
vt 18.000000 0.000000 0.000000
vt -8.000000 0.000000 0.000000
vt 36.000000 2.000000 0.000000
vt -0.000000 2.000000 0.000000
vt 36.000000 0.000000 0.000000
vt -0.000000 0.000000 0.000000
vt -0.000000 28.000000 0.000000
vt -2.000000 28.000000 0.000000
vt -0.000000 2.000000 0.000000
vt -2.000000 2.000000 0.000000
vt 36.000000 2.000000 0.000000
vt 38.000000 2.000000 0.000000
vt 36.000000 28.000000 0.000000
vt 38.000000 28.000000 0.000000
vt 0.000000 2.000000 0.000000
vt 36.000000 0.000000 0.000000
vt 0.000000 0.000000 0.000000
vt -0.000000 2.000000 0.000000
vt -26.000000 2.000000 0.000000
vt -0.000000 0.000000 0.000000
vt -26.000000 -0.000000 0.000000
vt 26.000000 0.000000 0.000000
vt 26.000000 2.000000 0.000000
vt 14.000000 -0.000000 0.000000
vt 0.000000 2.000000 0.000000
vt 12.000000 0.000000 0.000000
vt 0.000000 0.000000 0.000000
vt 26.000000 0.000000 0.000000
vt 26.000000 2.000000 0.000000
vt 14.000000 0.000000 0.000000
vt -0.000000 2.000000 0.000000
vt 12.000000 -0.000000 0.000000
vt 0.000000 0.000000 0.000000
vt 40.000000 2.000000 0.000000
vt 2.000000 2.000000 0.000000
vt 40.000000 0.000000 0.000000
vt -0.000000 0.000000 0.000000
vt 0.000000 28.000000 0.000000
vt 2.000000 28.000000 0.000000
vt 2.000000 28.000000 0.000000
vt 0.000000 28.000000 0.000000
vt 2.000000 2.000000 0.000000
vt 0.000000 0.000000 0.000000
vt 14.000000 0.000000 0.000000
vt 14.000000 -2.000000 0.000000
vt 16.000000 -2.000000 0.000000
vt 16.000000 0.000000 0.000000
vt 28.000000 2.000000 0.000000
vt 30.000000 0.000000 0.000000
vt 30.000000 28.000000 0.000000
vt 28.000000 28.000000 0.000000
vt -18.000000 1.000000 0.000000
vt -18.000000 13.000000 0.000000
vt -20.000000 1.000000 0.000000
vt -20.000000 15.000000 0.000000
vt 18.000000 13.000000 0.000000
vt 20.000000 15.000000 0.000000
vt 20.000000 1.000000 0.000000
vt 18.000000 1.000000 0.000000
vn 0.000000 100.000000 0.000000
vn 0.000000 100.000000 0.000000
vn 0.000000 100.000000 0.000000
vn 0.000000 100.000000 0.000000
vn 0.000000 100.000000 0.000000
vn 0.000000 100.000000 0.000000
vn 0.000000 0.000000 100.000000
vn 0.000000 0.000000 100.000000
vn 0.000000 0.000000 100.000000
vn 0.000000 0.000000 100.000000
vn 0.000000 -100.000000 0.000000
vn 0.000000 -100.000000 0.000000
vn 0.000000 -100.000000 0.000000
vn 0.000000 -100.000000 0.000000
vn 0.000000 -100.000000 0.000000
vn 0.000000 -100.000000 0.000000
vn 0.000000 0.000000 -100.000000
vn 0.000000 0.000000 -100.000000
vn 0.000000 0.000000 -100.000000
vn 0.000000 0.000000 -100.000000
vn -0.000000 0.000000 -100.000000
vn -0.000000 0.000000 -100.000000
vn -0.000000 0.000000 -100.000000
vn -0.000000 0.000000 -100.000000
vn -0.000000 0.000000 -100.000000
vn -0.000000 0.000000 -100.000000
vn -0.000000 0.000000 -100.000000
vn -0.000000 0.000000 -100.000000
vn 0.000000 0.000000 100.000000
vn 0.000000 0.000000 100.000000
vn 0.000000 0.000000 100.000000
vn 0.000000 0.000000 100.000000
vn 0.000000 0.000000 100.000000
vn 0.000000 0.000000 100.000000
vn 0.000000 0.000000 100.000000
vn 0.000000 0.000000 100.000000
vn 0.000000 -100.000000 0.000000
vn 0.000000 -100.000000 0.000000
vn 0.000000 -100.000000 0.000000
vn 0.000000 -100.000000 0.000000
vn 0.000000 -100.000000 0.000000
vn 0.000000 -100.000000 0.000000
vn -100.000000 0.000000 0.000000
vn -100.000000 0.000000 0.000000
vn -100.000000 0.000000 0.000000
vn -100.000000 0.000000 0.000000
vn -100.000000 0.000000 0.000000
vn -100.000000 0.000000 0.000000
vn -100.000000 0.000000 0.000000
vn -100.000000 0.000000 0.000000
vn 0.000000 -0.000000 100.000000
vn 0.000000 -0.000000 100.000000
vn 0.000000 -0.000000 100.000000
vn 0.000000 -0.000000 100.000000
vn 0.000000 -0.000000 100.000000
vn 0.000000 -0.000000 100.000000
vn 0.000000 -0.000000 100.000000
vn 0.000000 -0.000000 100.000000
vn -100.000000 0.000000 -0.000000
vn -100.000000 0.000000 -0.000000
vn -100.000000 0.000000 -0.000000
vn -100.000000 0.000000 -0.000000
vn -100.000000 0.000000 -0.000000
vn -100.000000 0.000000 -0.000000
vn -100.000000 0.000000 -0.000000
vn -100.000000 0.000000 -0.000000
vn 0.000000 100.000000 0.000000
vn 0.000000 100.000000 0.000000
vn 0.000000 100.000000 0.000000
vn 0.000000 100.000000 0.000000
vn 0.000000 100.000000 0.000000
vn 0.000000 100.000000 0.000000
vn 0.000000 100.000000 0.000000
vn -0.000000 -100.000000 0.000000
vn -0.000000 -100.000000 0.000000
vn -0.000000 -100.000000 0.000000
vn -0.000000 -100.000000 0.000000
vn -0.000000 -100.000000 0.000000
vn -0.000000 -100.000000 0.000000
vn -0.000000 -100.000000 0.000000
vn 0.000000 0.000000 100.000000
vn 0.000000 0.000000 100.000000
vn 100.000000 0.000000 0.000000
vn 100.000000 0.000000 0.000000
vn 100.000000 0.000000 0.000000
vn 100.000000 0.000000 0.000000
vn 100.000000 0.000000 0.000000
vn 100.000000 0.000000 0.000000
vn -100.000000 -0.000000 0.000000
vn -100.000000 -0.000000 0.000000
vn -100.000000 -0.000000 0.000000
vn -100.000000 -0.000000 0.000000
vn 0.000000 100.000000 0.000000
vn 0.000000 100.000000 0.000000
vn 0.000000 100.000000 0.000000
vn 0.000000 100.000000 0.000000
vn 0.000000 100.000000 0.000000
vn 0.000000 100.000000 0.000000
vn 100.000000 -0.000000 0.000000
vn 100.000000 -0.000000 0.000000
vn 100.000000 -0.000000 0.000000
vn 100.000000 -0.000000 0.000000
vn 100.000000 -0.000000 0.000000
vn 100.000000 -0.000000 0.000000
vn 100.000000 -0.000000 0.000000
vn 100.000000 -0.000000 0.000000
vn 100.000000 -0.000000 0.000000
vn 100.000000 -0.000000 0.000000
vn 100.000000 -0.000000 0.000000
vn 100.000000 -0.000000 0.000000
vn -0.000000 0.000000 -100.000000
vn -0.000000 0.000000 -100.000000
vn -0.000000 0.000000 -100.000000
vn -0.000000 0.000000 -100.000000
vn -0.000000 0.000000 -100.000000
vn -0.000000 0.000000 -100.000000
vn -0.000000 0.000000 -100.000000
vn -0.000000 0.000000 -100.000000
usemtl 폴리이미드(Kapton)
f 2/1/1 4/2/2 1/3/3
f 1/3/3 4/2/2 5/4/4
f 1/3/3 5/4/4 6/5/5
f 2/1/1 3/6/6 4/2/2
f 7/7/7 5/8/8 8/9/9
f 8/9/9 5/8/8 4/10/10
f 9/11/11 10/12/12 8/13/13
f 8/13/13 10/12/12 11/14/14
f 8/13/13 11/14/14 7/15/15
f 7/15/15 11/14/14 12/16/16
f 10/17/17 2/18/18 11/19/19
f 11/19/19 2/18/18 1/20/20
f 7/21/21 12/22/22 16/23/23
f 16/23/23 12/22/22 13/24/24
f 16/23/23 13/24/24 14/25/25
f 16/23/23 14/25/25 15/26/26
f 15/26/26 14/25/25 9/27/27
f 15/26/26 9/27/27 8/28/28
f 17/29/29 18/30/30 20/31/31
f 20/31/31 18/30/30 19/32/32
f 21/33/33 22/34/34 24/35/35
f 24/35/35 22/34/34 23/36/36
f 26/37/37 14/38/38 25/39/39
f 25/39/39 14/38/38 13/40/40
f 25/39/39 13/40/40 20/41/41
f 20/41/41 19/42/42 25/39/39
f 14/43/43 26/44/44 9/45/45
f 9/45/45 26/44/44 27/46/46
f 9/45/45 27/46/46 3/47/47
f 3/47/47 27/46/46 28/48/48
f 2/49/49 10/50/50 3/47/47
f 3/47/47 10/50/50 9/45/45
f 30/51/51 31/52/52 29/53/53
f 29/53/53 31/52/52 27/54/54
f 29/53/53 27/54/54 26/55/55
f 29/53/53 26/55/55 33/56/56
f 33/56/56 26/55/55 25/57/57
f 33/56/56 25/57/57 32/58/58
f 30/59/59 21/60/60 31/61/61
f 31/61/61 21/60/60 24/62/62
f 18/63/63 32/64/64 19/65/65
f 19/65/65 32/64/64 25/66/66
f 33/67/67 32/68/68 15/69/69
f 15/69/69 32/68/68 16/70/70
f 18/71/71 17/72/72 32/73/68
f 32/73/68 17/72/72 34/74/73
f 30/75/74 35/76/75 21/77/76
f 21/77/76 35/76/75 22/78/77
f 30/75/74 29/79/78 37/80/79
f 37/80/79 29/79/78 36/81/80
f 30/82/51 32/83/58 35/84/81
f 35/84/81 32/83/58 34/85/82
f 36/86/83 29/87/84 4/88/85
f 4/88/85 29/87/84 33/89/86
f 4/88/85 33/89/86 8/90/87
f 8/90/87 33/89/86 15/91/88
f 16/92/89 32/93/64 7/94/90
f 7/94/90 32/93/64 30/95/59
f 7/94/90 30/95/59 5/96/91
f 5/96/91 30/95/59 37/97/92
f 27/98/93 31/99/94 28/100/95
f 28/100/95 31/99/94 38/101/96
f 38/101/96 31/99/94 23/102/97
f 23/102/97 31/99/94 24/103/98
f 17/104/99 20/105/100 34/106/101
f 34/106/101 20/105/100 13/107/102
f 34/106/101 13/107/102 12/108/103
f 11/109/104 1/110/105 12/108/103
f 12/108/103 1/110/105 6/111/106
f 12/108/103 6/111/106 34/106/101
f 34/106/101 6/111/106 35/112/107
f 35/112/107 6/111/106 38/113/108
f 35/112/107 38/113/108 23/114/109
f 23/114/109 22/115/110 35/112/107
f 5/116/111 37/117/112 6/118/113
f 6/118/113 37/117/112 38/119/114
f 38/119/114 37/117/112 36/120/115
f 38/119/114 36/120/115 28/121/116
f 28/121/116 36/120/115 3/122/117
f 3/122/117 36/120/115 4/123/118
# 38 vertices
# 123 texture params
# 118 normals
# 80 facets

# 1 groups
